<?xml version="1.0" encoding="utf-8"?>
<!-- Generator: Adobe Illustrator 25.4.1, SVG Export Plug-In . SVG Version: 6.00 Build 0)  -->
<svg version="1.1"
	 id="svg2" xmlns:inkscape="http://www.inkscape.org/namespaces/inkscape" xmlns:sodipodi="http://sodipodi.sourceforge.net/DTD/sodipodi-0.dtd" xmlns:svg="http://www.w3.org/2000/svg"
	 xmlns="http://www.w3.org/2000/svg" xmlns:xlink="http://www.w3.org/1999/xlink" x="0px" y="0px" viewBox="0 0 300 240.6"
	 style="enable-background:new 0 0 300 240.6;" xml:space="preserve">
<style type="text/css">
	.st0{fill:none;}
	.st1{fill:#FFFFFF;}
</style>
<sodipodi:namedview  bordercolor="#000000" borderopacity="0.25" id="namedview4" inkscape:deskcolor="#d1d1d1" inkscape:pagecheckerboard="0" inkscape:pageopacity="0.0" inkscape:showpageshadow="2" pagecolor="#ffffff" showgrid="false">
	</sodipodi:namedview>
<rect x="-195.6" y="-195.6" class="st0" width="1122.5" height="793.7"/>
<g id="g176" transform="translate(-32.104351,32.104351)">
	<g id="g407" transform="matrix(0.80320208,0,0,0.80320208,31.738692,66.073712)">
		<g id="g194" transform="translate(225.7458,369.8801)">
			<path id="path196" class="st1" d="M-127.3-329c-6.5-9.9-11.4-20.9-14.3-32.6h94.3l-2.7,32.6H-127.3z M-53.8-282.2
				c-26.5-4-49.9-17.6-66.3-37.1h69.3L-53.8-282.2z M44.8-319.2c-16.8,20-40.9,33.8-68.3,37.4l-3-37.4H44.8z M66.3-361.6
				c-2.9,11.8-7.8,22.8-14.3,32.6h-79.4l-2.7-32.6H66.3z M68.3-401c0.7,4.7,1,9.6,1,14.5c0,5.2-0.4,10.3-1.1,15.2h-99l-2.4-29.7
				L68.3-401z M52.5-443.4c6.4,9.9,11.2,20.9,14,32.6H-34.1l-2.7-32.6H52.5z M-120.6-453.1c19.6-23.8,49.5-39,83-39
				c33.5,0,63.4,15.2,83,39h-82.9l-1.1-13.8l-1.1,13.8H-120.6z M-141.7-410.7c2.8-11.8,7.6-22.8,14-32.6h87.2l-2.7,32.6H-141.7z
				 M-144.6-386.5c0-4.9,0.3-9.8,1-14.5H-44l-2.4,29.7h-97C-144.2-376.3-144.6-381.4-144.6-386.5"/>
		</g>
		<g id="g198" transform="translate(286.25349,309.37669)">
			<path id="path200" class="st1" d="M-94.9-175.6c0.7,1,1.7,3.1,0.5,5.4c-1.2,2.3-3.7,2.8-3.7,2.8v17c25-26.9,11.1-41.1,10.6-45.2
				c-3.4-27.8,79.9-30.8,79.9-30.8l2.9,6.3c-64.2,3.6-72.2,17-73.6,18.5c-2.8,3.1-1.4,11.1,5.7,6.1c21-14.9,72.2-17.3,72.2-17.3
				l3.4,6.7c-78.4,9.6-77.9,17.8-78.4,18.8c-3.2,6.1-3.1,14.9-1.4,14c32.7-18.5,89.5-21.7,89.5-21.7L28-168.2
				c-107.8,14-125.6,36.1-125.6,36.1h-2.9c0,0-17.8-22.1-125.6-36.1l15.4-26.9c0,0,56.8,3.1,89.5,21.7c1.7,1,1.8-7.8-1.4-14
				c-0.5-1-0.1-9.1-78.4-18.8l3.4-6.7c0,0,51.2,2.4,72.2,17.3c7.1,5,8.5-3,5.7-6.1c-1.4-1.5-9.4-14.8-73.6-18.5l2.9-6.3
				c0,0,83.3,3,79.9,30.8c-0.5,4.1-14.4,18.3,10.6,45.2v-17c0,0-2.5-0.4-3.7-2.7c-1.1-2.3-0.3-4.6,0.5-5.6c0,0,1.4-2,4.2-2
				C-98.9-177.7-96.4-177.7-94.9-175.6"/>
		</g>
		<g id="g202" transform="translate(210.6963,307.127)">
			<path id="path204" class="st1" d="M-135.3-169.9c73.1,7.2,94.9,26.3,98.9,28.6c6.7,3.9,5.6-1.1,5.3-2.4c-0.8-3.1-2.5-6.5-3.4-8.2
				c-7.8-15.3-17.3-18.3-17.3-18.3c-26.5-11.1-71.2-15.4-71.2-15.4c-8.2-1-8.2,0.5-8.2,0.5l-8.2,14.4L-135.3-169.9z"/>
		</g>
		<g id="g206" transform="translate(359.11929,307.5968)">
			<path id="path208" class="st1" d="M-56-171.1l-8.2-14.4c0,0,0-1.4-8.2-0.5c0,0-44.7,4.3-71.2,15.4c0,0-9.5,3-17.3,18.3
				c-0.9,1.7-2.5,5-3.4,8.2c-0.4,1.3-1.4,6.3,5.3,2.4c4-2.3,25.5-21.6,98.7-28.9L-56-171.1z"/>
		</g>
	</g>
</g>
</svg>
